<svg width="57" height="33" viewBox="0 0 57 33" fill="none" xmlns="http://www.w3.org/2000/svg">
<g clip-path="url(#clip0)">
<path d="M7.47785 6.70315C7.47785 6.551 7.5374 6.40509 7.64339 6.2975C7.74938 6.18992 7.89314 6.12948 8.04303 6.12948H24.0047C24.0792 6.1301 24.1531 6.1157 24.2222 6.08713C24.2912 6.05856 24.3539 6.01638 24.4068 5.96302C24.4596 5.90967 24.5015 5.84621 24.53 5.77631C24.5586 5.70641 24.5731 5.63147 24.5729 5.55581V0.567381C24.5713 0.415776 24.5106 0.270988 24.4042 0.164661C24.2977 0.0583333 24.1541 -0.000885286 24.0047 -5.23663e-05H0.565178C0.415283 -5.23663e-05 0.271528 0.0603876 0.165537 0.167971C0.0595453 0.275555 0 0.42147 0 0.573617L0 10.8622H7.47785V6.70315Z" fill="#030303"/>
<path d="M57 0.573669C57 0.421523 56.9404 0.275608 56.8345 0.168024C56.7285 0.06044 56.5847 0 56.4348 0L50.138 0C49.9881 0 49.8443 0.06044 49.7384 0.168024C49.6324 0.275608 49.5728 0.421523 49.5728 0.573669V10.8623H57.0046L57 0.573669Z" fill="#030303"/>
<path d="M49.5682 18.4322C49.5685 18.5505 49.5326 18.666 49.4655 18.7628C49.3984 18.8595 49.3034 18.9328 49.1935 18.9724C49.0837 19.0121 48.9645 19.0162 48.8522 18.9843C48.74 18.9523 48.6403 18.8858 48.5669 18.7939L45.2449 14.6769H35.9978L50.6525 32.7911C50.7055 32.8564 50.7721 32.909 50.8475 32.9451C50.9229 32.9813 51.0053 33 51.0887 33H56.4348C56.509 33.0002 56.5824 32.9856 56.651 32.9569C56.7195 32.9282 56.7819 32.8861 56.8344 32.833C56.8869 32.7798 56.9285 32.7167 56.9569 32.6472C56.9854 32.5777 57 32.5032 57 32.4279V14.6769H49.5682V18.4322Z" fill="#030303"/>
<path d="M33.5743 0.21045C33.5217 0.144593 33.4552 0.0915167 33.3797 0.0551045C33.3043 0.0186923 33.2217 -0.000134737 33.1382 7.25847e-07H27.7459C27.5966 0.000824681 27.4536 0.0616282 27.3483 0.169123C27.243 0.276617 27.1838 0.422062 27.1838 0.57367V10.8623H42.1733L33.5743 0.21045Z" fill="#030303"/>
<path d="M30.5396 14.6769H0V32.4248C-2.75253e-07 32.5 0.0146295 32.5746 0.0430511 32.6441C0.0714728 32.7136 0.113128 32.7767 0.165629 32.8299C0.218131 32.883 0.280448 32.9251 0.34901 32.9538C0.417571 32.9824 0.49103 32.9971 0.565178 32.9969H24.6083C24.6824 32.9971 24.7559 32.9824 24.8244 32.9538C24.893 32.9251 24.9553 32.883 25.0078 32.8299C25.0603 32.7767 25.102 32.7136 25.1304 32.6441C25.1588 32.5746 25.1734 32.5 25.1734 32.4248V27.4363C25.1734 27.3611 25.1588 27.2866 25.1304 27.217C25.102 27.1475 25.0603 27.0844 25.0078 27.0312C24.9553 26.9781 24.893 26.936 24.8244 26.9073C24.7559 26.8787 24.6824 26.864 24.6083 26.8642H8.04303C7.89314 26.8642 7.74938 26.8038 7.64339 26.6962C7.5374 26.5886 7.47785 26.4427 7.47785 26.2906V19.8072C7.47785 19.7319 7.49248 19.6574 7.5209 19.5879C7.54932 19.5184 7.59098 19.4552 7.64348 19.4021C7.69598 19.3489 7.7583 19.3068 7.82686 19.2782C7.89542 19.2495 7.96888 19.2348 8.04303 19.2351H27.1838V32.4248C27.1838 32.5 27.1984 32.5746 27.2269 32.6441C27.2553 32.7136 27.2969 32.7767 27.3494 32.8299C27.4019 32.883 27.4643 32.9251 27.5328 32.9538C27.6014 32.9824 27.6748 32.9971 27.749 32.9969H34.0458C34.1953 32.9969 34.3387 32.9366 34.4444 32.8293C34.5501 32.722 34.6094 32.5765 34.6094 32.4248V14.6769H30.5396Z" fill="#030303"/>
</g>
<defs>
<clipPath id="clip0">
<rect width="57" height="33" fill="white"/>
</clipPath>
</defs>
</svg>
